<svg width="26" height="27" viewBox="0 0 26 27" fill="none" xmlns="http://www.w3.org/2000/svg">
<g filter="url(#filter0_d_101_869)">
<path d="M21.1249 10.4058C21.1196 10.3083 21.08 10.2158 21.0131 10.1448C20.9462 10.0737 20.8562 10.0286 20.7593 10.0175L19.7577 9.85537C19.7126 9.84798 19.6712 9.82623 19.6395 9.79335C19.6078 9.76048 19.5876 9.71825 19.5819 9.67295C19.5628 9.5499 19.5429 9.42217 19.5155 9.30108C19.5067 9.25703 19.5119 9.21133 19.5303 9.17037C19.5487 9.1294 19.5795 9.09521 19.6182 9.07256L20.5081 8.57842C20.5964 8.53338 20.6652 8.45743 20.7012 8.36503C20.7372 8.27262 20.738 8.1702 20.7034 8.07725L20.5491 7.65147C20.5153 7.5582 20.4482 7.48069 20.3608 7.43377C20.2734 7.38685 20.1717 7.37382 20.0753 7.39717L19.0772 7.59248C19.0326 7.60046 18.9866 7.59414 18.9458 7.57443C18.9049 7.55472 18.8714 7.52262 18.8499 7.48272C18.7917 7.37373 18.7284 7.26279 18.6624 7.15381C18.6384 7.11498 18.6272 7.06963 18.6303 7.0241C18.6333 6.97857 18.6506 6.93515 18.6796 6.8999L19.3436 6.13272C19.4111 6.06029 19.4498 5.96577 19.4526 5.86684C19.4554 5.76791 19.4221 5.67135 19.3589 5.59522L19.069 5.24717C19.006 5.17078 18.9168 5.1205 18.8188 5.10607C18.7208 5.09163 18.621 5.11408 18.5386 5.16905L17.6647 5.69366C17.626 5.71687 17.5808 5.72701 17.5359 5.72257C17.4909 5.71814 17.4486 5.69938 17.4151 5.66905C17.3186 5.58428 17.2198 5.50264 17.1272 5.42725C17.0917 5.39921 17.066 5.36057 17.0539 5.31695C17.0419 5.27333 17.044 5.22699 17.06 5.18467L17.4218 4.23155C17.4612 4.1406 17.4658 4.03836 17.4347 3.94424C17.4037 3.85011 17.3392 3.77067 17.2534 3.721L16.8593 3.49092C16.7734 3.44143 16.6724 3.42535 16.5754 3.44574C16.4785 3.46614 16.3925 3.52159 16.3339 3.60147L15.6952 4.40381C15.6722 4.43868 15.6378 4.46447 15.5979 4.47673C15.558 4.48899 15.515 4.48696 15.4764 4.471C15.4526 4.46123 15.2511 4.37881 15.0944 4.32647C15.0514 4.31246 15.0141 4.28508 14.9878 4.24832C14.9615 4.21156 14.9477 4.16736 14.9483 4.12217L14.9636 3.10381C14.969 3.00437 14.938 2.90636 14.8764 2.82813C14.8148 2.7499 14.7267 2.69681 14.6288 2.67881L14.1815 2.60069C14.0841 2.58385 13.9838 2.60297 13.8994 2.65448C13.815 2.70599 13.7521 2.7864 13.7225 2.88076L13.3905 3.8499C13.3754 3.89293 13.347 3.92998 13.3093 3.95564C13.2716 3.9813 13.2267 3.99421 13.1811 3.99248H12.8003C12.7551 3.99341 12.7107 3.98006 12.6736 3.95432C12.6364 3.92858 12.6083 3.89176 12.5932 3.84912L12.2628 2.88545C12.2337 2.7904 12.171 2.70921 12.0863 2.65708C12.0017 2.60495 11.901 2.58545 11.803 2.60225L11.355 2.68037C11.2576 2.69823 11.1701 2.7508 11.1086 2.82831C11.0471 2.90583 11.0158 3.00303 11.0206 3.10186L11.0362 4.12373C11.0365 4.1696 11.022 4.21434 10.9948 4.25129C10.9677 4.28824 10.9293 4.31543 10.8854 4.32881C10.796 4.36358 10.6018 4.4378 10.5136 4.47061C10.4354 4.49873 10.3503 4.46787 10.2815 4.38858L9.64637 3.60733C9.58809 3.52696 9.50217 3.47098 9.40511 3.45014C9.30805 3.4293 9.20672 3.44508 9.12059 3.49444L8.72762 3.72217C8.64092 3.77194 8.5757 3.85203 8.54454 3.94702C8.51338 4.04201 8.51849 4.14517 8.55887 4.23662L8.9202 5.1874C8.93596 5.22982 8.93803 5.27611 8.92612 5.31976C8.91421 5.36341 8.88891 5.40223 8.85379 5.43076C8.75887 5.50889 8.6616 5.58701 8.56473 5.67373C8.53146 5.70383 8.48944 5.72249 8.44481 5.72699C8.40018 5.73148 8.35528 5.72158 8.31668 5.69873L7.45301 5.16397C7.37008 5.11002 7.27031 5.08819 7.17243 5.10258C7.07454 5.11696 6.98528 5.16657 6.92137 5.24209L6.6327 5.58936C6.56858 5.66497 6.53459 5.76157 6.53726 5.86067C6.53993 5.95978 6.57906 6.05442 6.64715 6.12647L7.31434 6.89287C7.34395 6.92741 7.36164 6.97056 7.36481 7.01594C7.36798 7.06132 7.35644 7.10651 7.33192 7.14483C7.26512 7.25108 7.20145 7.3628 7.14363 7.47451C7.12201 7.5147 7.08821 7.54701 7.04709 7.5668C7.00596 7.58659 6.95963 7.59284 6.91473 7.58467L5.91824 7.39209C5.82176 7.36881 5.72009 7.38187 5.63262 7.42877C5.54515 7.47568 5.47802 7.55314 5.44403 7.64639L5.28778 8.07139C5.25324 8.16446 5.25405 8.26697 5.29004 8.35948C5.32604 8.452 5.39473 8.52809 5.48309 8.57334L6.37293 9.06748C6.41295 9.08957 6.44469 9.12408 6.46337 9.1658C6.48204 9.20751 6.48663 9.25417 6.47645 9.29873L6.46707 9.34834C6.44676 9.45733 6.42801 9.56045 6.41004 9.67022C6.40383 9.71494 6.38363 9.75656 6.35234 9.78911C6.32105 9.82167 6.28027 9.84349 6.23582 9.85147L5.23231 10.0136C5.13417 10.0256 5.04377 10.073 4.978 10.1468C4.91222 10.2206 4.87557 10.3159 4.87488 10.4147V10.8671C4.87431 10.9663 4.91059 11.0623 4.97669 11.1363C5.04279 11.2104 5.13402 11.2572 5.2327 11.2679L6.23582 11.4296C6.2809 11.4369 6.32239 11.4587 6.35408 11.4915C6.38577 11.5244 6.40595 11.5667 6.4116 11.612C6.43074 11.7355 6.45067 11.8628 6.47801 11.9839C6.48682 12.0279 6.48166 12.0736 6.46324 12.1146C6.44482 12.1556 6.41407 12.1898 6.37528 12.2124L5.48582 12.7073C5.39746 12.7524 5.32874 12.8283 5.29273 12.9207C5.25672 13.0131 5.25593 13.1155 5.29051 13.2085L5.44676 13.6343C5.48067 13.7275 5.54774 13.805 5.63514 13.8519C5.72254 13.8988 5.82416 13.9118 5.92059 13.8886L6.91863 13.6952C6.96327 13.6871 7.00932 13.6934 7.05017 13.7131C7.09102 13.7328 7.12456 13.765 7.14598 13.805C7.20457 13.9144 7.26746 14.0249 7.33348 14.1339C7.35757 14.1727 7.36887 14.2181 7.36579 14.2636C7.3627 14.3092 7.34539 14.3526 7.31629 14.3878L6.65223 15.1546C6.58398 15.2265 6.54433 15.3208 6.54073 15.4198C6.53714 15.5189 6.56984 15.6158 6.6327 15.6925L6.92215 16.0405C6.98515 16.117 7.07432 16.1673 7.17234 16.1818C7.27036 16.1962 7.37025 16.1737 7.45262 16.1187L8.32645 15.594C8.36519 15.5708 8.41037 15.5607 8.45532 15.5651C8.50026 15.5696 8.54259 15.5883 8.57606 15.6187C8.67293 15.7034 8.77137 15.7851 8.86395 15.8605C8.89945 15.8885 8.92512 15.9271 8.93727 15.9707C8.94941 16.0143 8.9474 16.0606 8.93152 16.103L8.56942 17.0562C8.53002 17.1471 8.52541 17.2493 8.55645 17.3435C8.58748 17.4376 8.65201 17.517 8.73777 17.5667L9.1327 17.7948C9.21847 17.8444 9.31951 17.8605 9.41645 17.8402C9.51339 17.8199 9.59943 17.7645 9.65809 17.6847L10.3046 16.8897C10.3593 16.8222 10.4452 16.7921 10.5089 16.8179C10.6448 16.8741 10.7358 16.9058 10.8971 16.9597C10.9401 16.9737 10.9775 17.0011 11.0038 17.0378C11.0302 17.0746 11.0441 17.1188 11.0436 17.164L11.028 18.1815C11.0227 18.2809 11.0538 18.3789 11.1154 18.4571C11.177 18.5353 11.2649 18.5884 11.3628 18.6065L11.81 18.6847C11.9075 18.7017 12.0078 18.6826 12.0923 18.6311C12.1768 18.5796 12.2396 18.499 12.269 18.4046L12.6011 17.437C12.6161 17.394 12.6445 17.3569 12.6822 17.3312C12.7199 17.3055 12.7649 17.2926 12.8104 17.2944H13.1913C13.2365 17.2934 13.2809 17.3068 13.3181 17.3325C13.3552 17.3583 13.3833 17.3951 13.3983 17.4378L13.7292 18.4015C13.7548 18.4851 13.8066 18.5584 13.8769 18.6105C13.9472 18.6626 14.0323 18.6908 14.1198 18.6909C14.1431 18.691 14.1664 18.6889 14.1893 18.6847L14.6374 18.6065C14.7347 18.5887 14.8222 18.5361 14.8837 18.4586C14.9452 18.3811 14.9765 18.2839 14.9718 18.1851L14.9561 17.1632C14.9558 17.1182 14.9699 17.0742 14.9962 17.0377C15.0225 17.0012 15.0598 16.974 15.1026 16.9601C15.2526 16.9097 15.3581 16.869 15.4507 16.8331L15.4741 16.8241C15.5952 16.7823 15.6538 16.8331 15.6878 16.8753L16.3421 17.6812C16.4007 17.7609 16.4867 17.8162 16.5835 17.8365C16.6804 17.8568 16.7813 17.8407 16.8671 17.7913L17.2604 17.5636C17.3465 17.5139 17.4112 17.4342 17.4423 17.3398C17.4733 17.2455 17.4685 17.1429 17.4288 17.0519L17.0679 16.1011C17.0519 16.0587 17.0497 16.0124 17.0616 15.9687C17.0734 15.9251 17.0987 15.8862 17.1339 15.8577C17.2288 15.7796 17.3261 15.7015 17.4229 15.6147C17.4564 15.5846 17.4987 15.5659 17.5435 15.5616C17.5884 15.5572 17.6335 15.5674 17.6721 15.5905L18.5468 16.114C18.6297 16.168 18.7295 16.1899 18.8274 16.1755C18.9253 16.1611 19.0145 16.1114 19.0784 16.0358L19.3675 15.6882C19.4316 15.6126 19.4656 15.516 19.4629 15.4169C19.4602 15.3178 19.4211 15.2231 19.353 15.1511L18.6866 14.3827C18.657 14.3482 18.6393 14.305 18.6361 14.2596C18.633 14.2143 18.6445 14.1691 18.669 14.1308C18.7358 14.0249 18.7995 13.9132 18.8573 13.8011C18.879 13.761 18.9128 13.7287 18.9539 13.709C18.995 13.6892 19.0413 13.6829 19.0862 13.6909L20.0815 13.8851C20.178 13.9083 20.2797 13.8953 20.3671 13.8484C20.4546 13.8015 20.5217 13.724 20.5557 13.6308L20.71 13.2058C20.7446 13.1127 20.7437 13.0103 20.7077 12.9179C20.6717 12.8254 20.6031 12.7494 20.5147 12.7042L19.6241 12.2093C19.5846 12.187 19.5534 12.1526 19.5351 12.1111C19.5167 12.0697 19.5122 12.0234 19.5221 11.9792L19.5315 11.9296C19.5518 11.8206 19.5706 11.7175 19.5886 11.6077C19.5948 11.563 19.615 11.5214 19.6463 11.4888C19.6775 11.4563 19.7183 11.4344 19.7628 11.4265L20.7663 11.2647C20.8647 11.2529 20.9554 11.2056 21.0214 11.1316C21.0874 11.0577 21.1242 10.9623 21.1249 10.8632V10.4058ZM10.0917 14.0776C10.043 14.1623 9.97493 14.2342 9.89307 14.2874C9.81121 14.3406 9.71788 14.3737 9.62077 14.3838C9.52365 14.3939 9.42552 14.3809 9.33442 14.3457C9.24333 14.3106 9.16188 14.2543 9.09676 14.1815C8.21674 13.2085 7.73083 11.9425 7.73387 10.6305C7.7369 9.31856 8.22865 8.0548 9.11317 7.08584C9.17862 7.01311 9.26042 6.95698 9.35183 6.92206C9.44323 6.88714 9.54163 6.87444 9.63891 6.88501C9.73618 6.89558 9.82955 6.92911 9.91133 6.98284C9.99311 7.03656 10.0609 7.10896 10.1093 7.19405L11.8925 10.3327C11.946 10.4263 11.9742 10.5323 11.9742 10.6401C11.9742 10.748 11.946 10.854 11.8925 10.9476L10.0917 14.0776ZM12.9999 15.9206C12.6282 15.9207 12.2575 15.8814 11.894 15.8034C11.7993 15.7823 11.711 15.7391 11.6361 15.6774C11.5612 15.6158 11.5019 15.5373 11.463 15.4484C11.4241 15.3596 11.4066 15.2628 11.4121 15.1659C11.4175 15.0691 11.4458 14.9748 11.4944 14.8909L13.2913 11.7659C13.3453 11.6718 13.4233 11.5935 13.5172 11.5391C13.6112 11.4847 13.7179 11.4561 13.8264 11.4562H17.4257C17.5226 11.456 17.6182 11.4787 17.7048 11.5224C17.7913 11.5661 17.8664 11.6296 17.9238 11.7077C17.9813 11.7858 18.0195 11.8763 18.0354 11.9719C18.0514 12.0676 18.0445 12.1656 18.0155 12.2581C17.3323 14.38 15.3436 15.9206 12.9999 15.9206ZM13.2932 9.51826L11.5155 6.3878C11.4673 6.30373 11.4396 6.20951 11.4346 6.11275C11.4296 6.016 11.4474 5.91941 11.4866 5.83081C11.5258 5.74221 11.5853 5.66407 11.6603 5.60272C11.7353 5.54137 11.8236 5.49852 11.9182 5.47764C12.2739 5.40269 12.6364 5.36498 12.9999 5.36514C15.3436 5.36514 17.3323 6.90576 18.0143 9.02881C18.0434 9.12132 18.0502 9.21936 18.0343 9.31499C18.0183 9.41063 17.9801 9.50116 17.9226 9.57926C17.8652 9.65736 17.7902 9.72083 17.7036 9.76453C17.6171 9.80822 17.5214 9.83092 17.4245 9.83076H13.8307C13.7215 9.83098 13.6142 9.80216 13.5197 9.74725C13.4253 9.69234 13.3471 9.61331 13.2932 9.51826Z" fill="#CAB3FF"/>
</g>
<defs>
<filter id="filter0_d_101_869" x="-1" y="0.642365" width="28" height="28" filterUnits="userSpaceOnUse" color-interpolation-filters="sRGB">
<feFlood flood-opacity="0" result="BackgroundImageFix"/>
<feColorMatrix in="SourceAlpha" type="matrix" values="0 0 0 0 0 0 0 0 0 0 0 0 0 0 0 0 0 0 127 0" result="hardAlpha"/>
<feOffset dy="4"/>
<feGaussianBlur stdDeviation="2"/>
<feComposite in2="hardAlpha" operator="out"/>
<feColorMatrix type="matrix" values="0 0 0 0 0 0 0 0 0 0 0 0 0 0 0 0 0 0 0.25 0"/>
<feBlend mode="normal" in2="BackgroundImageFix" result="effect1_dropShadow_101_869"/>
<feBlend mode="normal" in="SourceGraphic" in2="effect1_dropShadow_101_869" result="shape"/>
</filter>
</defs>
</svg>
